<svg id="Layer_1" data-name="Layer 1" xmlns="http://www.w3.org/2000/svg" viewBox="0 0 9098.93 1417.98"><defs><style>.cls-1{fill:#009de2;}.cls-2{fill:#ccc;}.cls-3{fill:#b3b3b3;}.cls-4{fill:#999;}.cls-5{fill:gray;}.cls-6{fill:#666;}.cls-7{fill:#4d4d4d;}.cls-8{fill:#333;}.cls-9{fill:#1a1a1a;}.cls-10{stroke:#000;stroke-miterlimit:10;}.cls-11{fill:#1a1a18;}.cls-12,.cls-13{font-size:551.04px;font-family:ZeroTwos, Zero Twos;}.cls-12{fill:#008ad1;}.cls-13,.cls-14{fill:none;stroke:#009de2;}.cls-13{stroke-miterlimit:22.93;stroke-width:0.28px;}.cls-14{stroke-miterlimit:22.93;stroke-width:0.28px;}</style></defs><title>stalmalArtboard 1</title><rect class="cls-1" x="854.56" y="445.33" width="527.07" height="527.07" transform="translate(-173.67 998.66) rotate(-45.02)"/><polygon class="cls-2" points="745.4 708.99 1117.97 336.18 1307.93 526.01 1348.29 270.67 827.68 188.39 745.4 708.99"/><polygon class="cls-3" points="745.4 708.99 827.68 188.39 1092.95 230.31 975.51 0.01 505.97 239.45 745.4 708.99"/><polygon class="cls-4" points="745.4 708.99 505.97 239.45 745.44 117.56 514.84 0.16 275.71 469.86 745.4 708.99"/><polygon class="cls-5" points="745.4 708.99 275.71 469.86 397.55 230.54 142.23 271.06 224.86 791.61 745.4 708.99"/><polygon class="cls-6" points="745.4 708.99 224.86 791.61 182.76 526.38 0.02 709.23 372.84 1081.8 745.4 708.99"/><polygon class="cls-7" points="745.4 708.99 372.84 1081.8 182.88 891.97 142.52 1147.31 663.13 1229.59 745.4 708.99"/><polygon class="cls-8" points="745.4 708.99 663.13 1229.59 397.86 1187.67 515.3 1417.97 984.84 1178.53 745.4 708.99"/><polygon class="cls-9" points="745.4 708.99 984.84 1178.53 745.6 1300.53 975.97 1417.81 1177.23 1022.51 1118.22 1081.56 745.4 708.99"/><polygon class="cls-10" points="1177.23 1022.51 1092.95 1188.06 1348.58 1146.92 1308.05 891.6 1177.23 1022.51"/><path class="cls-11" d="M2212.28,957.45H1662.21V858.06l522.57-1.51q10.23,0,12.15-12.14a14.83,14.83,0,0,0,.64-3.8l-.64-75.86v-1.52H1662.21V544q0-52.35,35.82-73.59,15.35-9.86,35.18-9.86H2282V560.67l-521.29-.76q-10.24,0-12.15,11.38a14.47,14.47,0,0,0-.64,3.79v88.77h534.72V873.24q0,53.12-35.18,74.35A65.65,65.65,0,0,1,2212.28,957.45Z"/><path class="cls-11" d="M2367.71,460.53h620.44v99.38H2718.87V957.45h-86.35V559.91H2367.71Z"/><path class="cls-11" d="M3629.7,460.53q44.76,0,62.68,42.48,7.66,18.21,7.67,41V957.45H3613.7V763.23H3160.85V957.45h-87.63V544q0-52.35,35.82-73.59,15.35-9.86,35.18-9.86Zm-28.15,99.38H3173q-10.23,0-12.15,11.38a14.47,14.47,0,0,0-.64,3.79q0,7.6.64,88.77H3613.7v-88q0-12.12-9.59-15.17A5.07,5.07,0,0,0,3601.55,559.91Z"/><path class="cls-11" d="M3785.12,460.53h85.71V857.31h534.73V957.45H3785.12Z"/><path class="cls-11" d="M5110.43,460.53V957.45h-85.07V635.78L4801.49,810.27,4575.7,635.78V957.45h-85.07V460.53l310.86,242Z"/><path class="cls-11" d="M5752,460.53q44.76,0,62.69,42.48,7.67,18.21,7.67,41V957.45H5736V763.23H5283.13V957.45H5195.5V544q0-52.35,35.82-73.59,15.35-9.86,35.18-9.86Zm-28.14,99.38H5295.28q-10.24,0-12.15,11.38a14.47,14.47,0,0,0-.64,3.79q0,7.6.64,88.77H5736v-88q0-12.12-9.59-15.17A5.07,5.07,0,0,0,5723.83,559.91Z"/><text class="cls-12" transform="matrix(1.19, 0, -0.35, 0.94, 6240.87, 1070.09)">P</text><text class="cls-13" transform="matrix(1.19, 0, -0.35, 0.94, 6240.87, 1070.09)">P</text><text class="cls-12" transform="matrix(1.19, 0, -0.35, 0.94, 6658.77, 1070.09)">r</text><text class="cls-13" transform="matrix(1.19, 0, -0.35, 0.94, 6658.77, 1070.09)">r</text><text class="cls-12" transform="matrix(1.19, 0, -0.35, 0.94, 7062.26, 1070.09)">o</text><text class="cls-13" transform="matrix(1.19, 0, -0.35, 0.94, 7062.26, 1070.09)">o</text><text class="cls-12" transform="matrix(1.19, 0, -0.35, 0.94, 7493.88, 1070.09)">d</text><text class="cls-13" transform="matrix(1.19, 0, -0.35, 0.94, 7493.88, 1070.09)">d</text><text class="cls-12" transform="matrix(1.19, 0, -0.35, 0.94, 7933.41, 1070.09)">u</text><text class="cls-13" transform="matrix(1.19, 0, -0.35, 0.94, 7933.41, 1070.09)">u</text><text class="cls-12" transform="matrix(1.19, 0, -0.35, 0.94, 8387.36, 1070.09)">k</text><text class="cls-13" transform="matrix(1.19, 0, -0.35, 0.94, 8387.36, 1070.09)">k</text><text class="cls-12" transform="matrix(1.19, 0, -0.35, 0.94, 8810.44, 1070.09)">t</text><path class="cls-14" d="M8985.33,1070.09h-76q-33.41,0-48.56-17.29t-5.51-43.1l122.91-328.8h76.64l-32.23,86.2h76L9076,827.49h-76l-68.11,182.21h76Z"/><rect class="cls-11" x="5908.33" y="457.83" width="87.73" height="864.31"/><rect class="cls-11" x="5908.33" y="1234.41" width="3128.88" height="87.73"/></svg>